<svg width="1195" height="317" viewBox="0 0 1195 317" fill="none" xmlns="http://www.w3.org/2000/svg">
<path d="M75.742 131.685C65.8448 135.905 56.9621 141.943 49.3388 149.631C41.7135 157.318 35.7254 166.274 31.54 176.253C27.2047 186.589 25.0049 197.56 25.0049 208.863C25.0049 220.163 27.2047 231.136 31.54 241.474C35.7254 251.451 41.7135 260.407 49.3388 268.096C56.9621 275.782 65.8448 281.82 75.742 286.04C85.9931 290.411 96.8736 292.629 108.085 292.629C114.875 292.629 121.624 291.8 128.145 290.167C128.657 290.054 129.085 289.942 129.483 289.82C136.218 287.745 140.742 281.578 140.742 274.473C140.742 265.626 133.604 258.429 124.83 258.429C123.874 258.429 122.899 258.519 121.931 258.7C121.209 258.833 120.489 259.018 119.794 259.253L119.578 259.316C115.821 260.184 111.955 260.625 108.085 260.625C79.7754 260.625 56.746 237.405 56.746 208.863C56.746 180.32 79.7754 157.1 108.085 157.1C135.122 157.1 157.636 178.655 159.316 205.613H159.411L159.421 207.982V276.828C159.468 277.488 159.551 278.143 159.674 278.779C161.119 286.293 167.687 291.749 175.292 291.749C184.066 291.749 191.205 284.552 191.205 275.705C191.205 275.35 191.189 275.001 191.166 274.652L191.162 274.5L191.15 208.008C191.043 196.996 188.847 186.314 184.627 176.253C180.442 166.274 174.452 157.318 166.83 149.631C159.205 141.943 150.322 135.905 140.427 131.685C130.174 127.312 119.292 125.096 108.085 125.096C96.8736 125.096 85.9931 127.312 75.742 131.685Z" fill="white"/>
<path d="M285.48 274.657C279.194 274.657 273.513 273.439 268.437 271.002C263.36 268.443 259.311 265.093 256.289 260.95C253.388 256.686 251.937 251.934 251.937 246.694C251.937 238.165 255.382 231.403 262.272 226.408C269.162 221.29 278.167 217.879 289.287 216.173L314.127 212.518V208.68C314.127 203.562 312.857 199.602 310.319 196.8C307.781 193.998 303.429 192.596 297.265 192.596C292.913 192.596 289.348 193.51 286.568 195.338C283.908 197.044 281.914 199.359 280.584 202.283C279.617 203.867 278.227 204.659 276.414 204.659H262.091C260.761 204.659 259.734 204.293 259.009 203.562C258.404 202.831 258.102 201.856 258.102 200.638C258.223 198.689 259.009 196.313 260.459 193.51C262.03 190.708 264.327 188.027 267.349 185.469C270.491 182.788 274.541 180.534 279.496 178.706C284.452 176.879 290.435 175.965 297.446 175.965C305.061 175.965 311.467 176.94 316.665 178.889C321.983 180.717 326.214 183.215 329.356 186.382C332.499 189.55 334.796 193.267 336.246 197.531C337.697 201.796 338.422 206.304 338.422 211.056V268.443C338.422 269.662 337.999 270.697 337.153 271.55C336.307 272.403 335.279 272.83 334.07 272.83H319.384C318.055 272.83 316.967 272.403 316.121 271.55C315.396 270.697 315.033 269.662 315.033 268.443V261.316C313.462 263.509 311.346 265.641 308.687 267.712C306.028 269.784 302.764 271.489 298.897 272.83C295.149 274.048 290.677 274.657 285.48 274.657ZM291.644 257.295C295.875 257.295 299.682 256.381 303.067 254.553C306.572 252.726 309.292 249.923 311.226 246.146C313.28 242.247 314.308 237.373 314.308 231.525V227.687L296.177 230.611C289.045 231.708 283.727 233.475 280.222 235.911C276.716 238.348 274.964 241.333 274.964 244.867C274.964 247.547 275.749 249.862 277.321 251.812C279.013 253.639 281.128 255.041 283.667 256.015C286.205 256.868 288.864 257.295 291.644 257.295ZM396.675 274.657C390.389 274.657 384.829 273.622 379.994 271.55C375.28 269.357 371.352 266.311 368.209 262.412C365.066 258.513 362.649 253.944 360.957 248.705C359.265 243.344 358.298 237.495 358.056 231.16C357.935 228.966 357.874 227.017 357.874 225.311C357.874 223.483 357.935 221.473 358.056 219.28C358.298 213.188 359.204 207.522 360.775 202.283C362.468 197.044 364.885 192.475 368.028 188.576C371.291 184.555 375.28 181.448 379.994 179.255C384.829 177.061 390.389 175.965 396.675 175.965C403.202 175.965 408.702 177.122 413.174 179.437C417.767 181.631 421.575 184.494 424.597 188.027V147.454C424.597 146.235 424.959 145.2 425.684 144.347C426.531 143.494 427.618 143.067 428.948 143.067H444.359C445.568 143.067 446.595 143.494 447.442 144.347C448.288 145.2 448.711 146.235 448.711 147.454V268.443C448.711 269.662 448.288 270.697 447.442 271.55C446.595 272.403 445.568 272.83 444.359 272.83H430.036C428.706 272.83 427.618 272.403 426.772 271.55C426.047 270.697 425.684 269.662 425.684 268.443V261.681C422.663 265.458 418.795 268.565 414.081 271.002C409.487 273.439 403.686 274.657 396.675 274.657ZM403.383 255.102C408.46 255.102 412.509 253.944 415.531 251.629C418.553 249.314 420.789 246.39 422.24 242.856C423.69 239.201 424.476 235.485 424.597 231.708C424.717 229.515 424.778 227.2 424.778 224.763C424.778 222.204 424.717 219.828 424.597 217.635C424.476 213.98 423.63 210.507 422.058 207.217C420.487 203.806 418.19 201.004 415.169 198.81C412.147 196.617 408.218 195.521 403.383 195.521C398.307 195.521 394.257 196.678 391.235 198.993C388.334 201.186 386.219 204.111 384.89 207.766C383.56 211.421 382.774 215.442 382.533 219.828C382.412 223.483 382.412 227.139 382.533 230.794C382.774 235.18 383.56 239.201 384.89 242.856C386.219 246.512 388.334 249.497 391.235 251.812C394.257 254.005 398.307 255.102 403.383 255.102ZM513.487 274.657C500.07 274.657 489.433 270.758 481.577 262.96C473.72 255.162 469.489 244.075 468.885 229.697C468.764 228.479 468.704 226.956 468.704 225.128C468.704 223.179 468.764 221.656 468.885 220.559C469.369 211.299 471.423 203.379 475.05 196.8C478.797 190.099 483.934 184.981 490.461 181.448C496.988 177.793 504.663 175.965 513.487 175.965C523.278 175.965 531.497 178.036 538.145 182.179C544.793 186.2 549.809 191.865 553.194 199.176C556.578 206.365 558.27 214.711 558.27 224.215V228.053C558.27 229.271 557.847 230.307 557.001 231.16C556.155 232.012 555.067 232.439 553.738 232.439H493.543C493.543 232.439 493.543 232.622 493.543 232.987C493.543 233.353 493.543 233.657 493.543 233.901C493.664 238.165 494.45 242.125 495.9 245.781C497.472 249.314 499.708 252.177 502.609 254.371C505.63 256.564 509.196 257.66 513.306 257.66C516.69 257.66 519.531 257.173 521.827 256.198C524.124 255.102 525.997 253.883 527.448 252.543C528.898 251.203 529.926 250.106 530.53 249.253C531.618 247.791 532.464 246.938 533.068 246.694C533.794 246.329 534.821 246.146 536.151 246.146H551.743C552.952 246.146 553.919 246.512 554.644 247.243C555.49 247.974 555.853 248.888 555.732 249.984C555.611 251.934 554.584 254.31 552.65 257.112C550.837 259.914 548.178 262.656 544.672 265.336C541.167 268.017 536.755 270.271 531.437 272.099C526.239 273.804 520.256 274.657 513.487 274.657ZM493.543 217.087H533.612V216.538C533.612 211.787 532.827 207.644 531.255 204.111C529.684 200.455 527.387 197.653 524.366 195.703C521.344 193.632 517.718 192.596 513.487 192.596C509.257 192.596 505.63 193.632 502.609 195.703C499.587 197.653 497.29 200.455 495.719 204.111C494.268 207.644 493.543 211.787 493.543 216.538V217.087ZM581.871 272.83C580.662 272.83 579.635 272.403 578.789 271.55C577.942 270.697 577.516 269.662 577.516 268.443V182.362C577.516 181.021 577.942 179.925 578.789 179.072C579.635 178.219 580.662 177.793 581.871 177.793H596.557C597.766 177.793 598.793 178.219 599.639 179.072C600.606 179.925 601.09 181.021 601.09 182.362V189.855C603.87 185.956 607.435 182.971 611.787 180.9C616.259 178.828 621.396 177.793 627.198 177.793H634.632C635.961 177.793 636.989 178.219 637.714 179.072C638.56 179.925 638.983 180.96 638.983 182.179V195.338C638.983 196.556 638.56 197.592 637.714 198.445C636.989 199.298 635.961 199.724 634.632 199.724H620.49C614.688 199.724 610.155 201.369 606.892 204.659C603.749 207.827 602.177 212.335 602.177 218.183V268.443C602.177 269.662 601.754 270.697 600.908 271.55C600.062 272.403 598.974 272.83 597.645 272.83H581.871ZM692.496 274.657C679.079 274.657 668.442 270.758 660.585 262.96C652.729 255.162 648.498 244.075 647.894 229.697C647.773 228.479 647.712 226.956 647.712 225.128C647.712 223.179 647.773 221.656 647.894 220.559C648.377 211.299 650.432 203.379 654.058 196.8C657.805 190.099 662.942 184.981 669.47 181.448C675.997 177.793 683.672 175.965 692.496 175.965C702.286 175.965 710.506 178.036 717.154 182.179C723.802 186.2 728.818 191.865 732.203 199.176C735.587 206.365 737.279 214.711 737.279 224.215V228.053C737.279 229.271 736.856 230.307 736.01 231.16C735.164 232.012 734.076 232.439 732.746 232.439H672.552C672.552 232.439 672.552 232.622 672.552 232.987C672.552 233.353 672.552 233.657 672.552 233.901C672.673 238.165 673.458 242.125 674.909 245.781C676.48 249.314 678.716 252.177 681.617 254.371C684.639 256.564 688.205 257.66 692.314 257.66C695.699 257.66 698.539 257.173 700.836 256.198C703.133 255.102 705.006 253.883 706.457 252.543C707.907 251.203 708.935 250.106 709.539 249.253C710.627 247.791 711.473 246.938 712.077 246.694C712.802 246.329 713.83 246.146 715.159 246.146H730.752C731.961 246.146 732.928 246.512 733.653 247.243C734.499 247.974 734.862 248.888 734.741 249.984C734.62 251.934 733.593 254.31 731.659 257.112C729.845 259.914 727.186 262.656 723.681 265.336C720.176 268.017 715.764 270.271 710.445 272.099C705.248 273.804 699.265 274.657 692.496 274.657ZM672.552 217.087H712.621V216.538C712.621 211.787 711.835 207.644 710.264 204.111C708.693 200.455 706.396 197.653 703.374 195.703C700.353 193.632 696.726 192.596 692.496 192.596C688.265 192.596 684.639 193.632 681.617 195.703C678.595 197.653 676.299 200.455 674.728 204.111C673.277 207.644 672.552 211.787 672.552 216.538V217.087ZM792.242 274.657C784.99 274.657 778.765 273.804 773.567 272.099C768.491 270.393 764.321 268.261 761.057 265.702C757.793 263.143 755.376 260.584 753.805 258.026C752.233 255.467 751.387 253.335 751.266 251.629C751.146 250.289 751.508 249.253 752.354 248.522C753.321 247.669 754.349 247.243 755.436 247.243H769.76C770.243 247.243 770.666 247.304 771.029 247.425C771.392 247.547 771.875 247.913 772.48 248.522C774.051 249.862 775.683 251.264 777.375 252.726C779.188 254.188 781.303 255.467 783.721 256.564C786.138 257.538 789.16 258.026 792.786 258.026C797.5 258.026 801.429 257.112 804.571 255.284C807.835 253.335 809.467 250.593 809.467 247.06C809.467 244.501 808.741 242.43 807.291 240.846C805.961 239.262 803.423 237.861 799.676 236.642C795.929 235.302 790.61 233.901 783.721 232.439C776.952 230.855 771.331 228.845 766.859 226.408C762.387 223.971 759.063 220.925 756.887 217.269C754.711 213.614 753.623 209.35 753.623 204.476C753.623 199.724 755.013 195.216 757.794 190.952C760.694 186.565 764.925 182.971 770.485 180.168C776.166 177.366 783.177 175.965 791.517 175.965C798.044 175.965 803.725 176.818 808.56 178.524C813.395 180.108 817.384 182.118 820.526 184.555C823.79 186.992 826.268 189.489 827.96 192.048C829.652 194.485 830.559 196.617 830.68 198.445C830.801 199.785 830.438 200.882 829.592 201.735C828.746 202.466 827.779 202.831 826.691 202.831H813.274C812.67 202.831 812.126 202.709 811.642 202.466C811.159 202.222 810.675 201.917 810.192 201.552C808.862 200.333 807.412 199.054 805.84 197.714C804.269 196.252 802.335 195.033 800.039 194.059C797.863 193.084 794.962 192.596 791.336 192.596C786.743 192.596 783.237 193.632 780.82 195.703C778.402 197.653 777.194 200.151 777.194 203.197C777.194 205.268 777.737 207.096 778.825 208.68C780.034 210.142 782.391 211.543 785.896 212.883C789.402 214.223 794.72 215.625 801.852 217.087C809.95 218.549 816.356 220.742 821.07 223.666C825.905 226.469 829.29 229.758 831.224 233.535C833.279 237.191 834.306 241.272 834.306 245.781C834.306 251.264 832.674 256.198 829.411 260.584C826.268 264.971 821.554 268.443 815.268 271.002C809.104 273.439 801.429 274.657 792.242 274.657ZM894.723 274.657C885.054 274.657 876.895 272.951 870.247 269.54C863.719 266.128 858.703 261.316 855.198 255.102C851.814 248.888 849.88 241.638 849.396 233.353C849.275 231.16 849.215 228.479 849.215 225.311C849.215 222.143 849.275 219.463 849.396 217.269C849.88 208.862 851.874 201.613 855.379 195.521C859.006 189.307 864.082 184.494 870.609 181.082C877.257 177.671 885.295 175.965 894.723 175.965C904.151 175.965 912.129 177.671 918.656 181.082C925.304 184.494 930.381 189.307 933.886 195.521C937.512 201.613 939.567 208.862 940.051 217.269C940.172 219.463 940.232 222.143 940.232 225.311C940.232 228.479 940.172 231.16 940.051 233.353C939.567 241.638 937.573 248.888 934.067 255.102C930.683 261.316 925.667 266.128 919.019 269.54C912.492 272.951 904.393 274.657 894.723 274.657ZM894.723 256.564C901.13 256.564 906.085 254.553 909.591 250.532C913.096 246.39 915.03 240.359 915.393 232.439C915.513 230.611 915.574 228.235 915.574 225.311C915.574 222.387 915.513 220.011 915.393 218.183C915.03 210.264 913.096 204.293 909.591 200.272C906.085 196.13 901.13 194.059 894.723 194.059C888.317 194.059 883.361 196.13 879.856 200.272C876.351 204.293 874.417 210.264 874.054 218.183C873.933 220.011 873.873 222.387 873.873 225.311C873.873 228.235 873.933 230.611 874.054 232.439C874.417 240.359 876.351 246.39 879.856 250.532C883.361 254.553 888.317 256.564 894.723 256.564Z" fill="white"/>
<path d="M965.823 274C964.6 274 963.561 273.572 962.706 272.716C961.85 271.861 961.422 270.822 961.422 269.599V251.447C961.422 250.102 961.85 249.002 962.706 248.146C963.561 247.291 964.6 246.863 965.823 246.863H984.159C985.381 246.863 986.42 247.291 987.276 248.146C988.131 249.002 988.559 250.102 988.559 251.447V269.599C988.559 270.822 988.131 271.861 987.276 272.716C986.42 273.572 985.381 274 984.159 274H965.823ZM1039.27 275.834C1032.92 275.834 1027.17 274.611 1022.04 272.166C1016.9 269.599 1012.81 266.238 1009.75 262.082C1006.82 257.803 1005.35 253.036 1005.35 247.78C1005.35 239.223 1008.77 232.438 1015.62 227.427C1022.59 222.293 1031.75 218.87 1043.12 217.159L1068.24 213.491V209.641C1068.24 204.507 1066.96 200.534 1064.39 197.722C1061.83 194.911 1057.43 193.505 1051.19 193.505C1046.79 193.505 1043.18 194.422 1040.37 196.256C1037.68 197.967 1035.67 200.289 1034.32 203.223C1033.34 204.812 1031.94 205.607 1030.1 205.607H1015.62C1014.27 205.607 1013.24 205.24 1012.5 204.507C1011.89 203.773 1011.59 202.795 1011.59 201.573C1011.71 199.617 1012.5 197.233 1013.97 194.422C1015.44 191.61 1017.76 188.921 1020.94 186.354C1024.11 183.665 1028.21 181.403 1033.22 179.57C1038.23 177.736 1044.28 176.819 1051.37 176.819C1059.08 176.819 1065.55 177.797 1070.81 179.753C1076.19 181.587 1080.47 184.093 1083.65 187.271C1086.82 190.449 1089.15 194.177 1090.61 198.456C1092.08 202.734 1092.81 207.257 1092.81 212.024V269.599C1092.81 270.822 1092.39 271.861 1091.53 272.716C1090.67 273.572 1089.64 274 1088.41 274H1073.56C1072.22 274 1071.12 273.572 1070.26 272.716C1069.53 271.861 1069.16 270.822 1069.16 269.599V262.448C1067.57 264.771 1065.43 266.971 1062.74 269.049C1060.05 271.005 1056.75 272.655 1052.84 274C1049.05 275.222 1044.53 275.834 1039.27 275.834ZM1045.51 258.414C1049.79 258.414 1053.64 257.498 1057.06 255.664C1060.6 253.83 1063.35 251.019 1065.31 247.229C1067.39 243.318 1068.43 238.428 1068.43 232.561V228.71L1050.09 231.644C1042.88 232.744 1037.5 234.517 1033.96 236.961C1030.41 239.406 1028.64 242.401 1028.64 245.946C1028.64 248.635 1029.43 250.958 1031.02 252.914C1032.73 254.747 1034.87 256.153 1037.44 257.131C1040.01 257.987 1042.7 258.414 1045.51 258.414ZM1120.74 274C1119.51 274 1118.48 273.572 1117.62 272.716C1116.76 271.861 1116.34 270.822 1116.34 269.599V183.054C1116.34 181.831 1116.76 180.792 1117.62 179.937C1118.48 179.081 1119.51 178.653 1120.74 178.653H1135.96C1137.3 178.653 1138.34 179.081 1139.07 179.937C1139.93 180.792 1140.36 181.831 1140.36 183.054V269.599C1140.36 270.822 1139.93 271.861 1139.07 272.716C1138.34 273.572 1137.3 274 1135.96 274H1120.74ZM1120 162.884C1118.66 162.884 1117.56 162.517 1116.7 161.784C1115.97 160.928 1115.6 159.828 1115.6 158.483V145.282C1115.6 144.059 1115.97 143.02 1116.7 142.164C1117.56 141.309 1118.66 140.881 1120 140.881H1136.69C1138.03 140.881 1139.13 141.309 1139.99 142.164C1140.85 143.02 1141.27 144.059 1141.27 145.282V158.483C1141.27 159.828 1140.85 160.928 1139.99 161.784C1139.13 162.517 1138.03 162.884 1136.69 162.884H1120Z" fill="white"/>
</svg>
